<svg width="96" height="96" viewBox="0 0 96 96" fill="none" xmlns="http://www.w3.org/2000/svg">
<path fill-rule="evenodd" clip-rule="evenodd" d="M63.498 78.6435C63.4984 78.9518 63.438 79.2571 63.3202 79.542C63.2024 79.8269 63.0295 80.0857 62.8115 80.3037C62.5935 80.5217 62.3347 80.6946 62.0498 80.8124C61.7649 80.9302 61.4596 80.9906 61.1513 80.9902L34.6348 80.9902C34.3265 80.9906 34.0212 80.9302 33.7363 80.8124C33.4514 80.6946 33.1925 80.5217 32.9745 80.3037C32.7566 80.0857 32.5837 79.8269 32.4659 79.542C32.3481 79.2571 32.2877 78.9518 32.2881 78.6435L32.2881 66.0349L24.0547 52.306C23.4275 51.2609 23.0828 50.0707 23.0543 48.8521C23.0258 47.6336 23.3146 46.4286 23.8923 45.3553L47.893 0.777771L71.8971 45.3586C72.4736 46.4311 72.7617 47.6349 72.7332 48.8521C72.7047 50.0693 72.3607 51.2583 71.7347 52.3027L63.498 66.0283L63.498 78.6435ZM59.8255 63.0385L67.7141 49.893C67.9236 49.5441 68.0387 49.1467 68.048 48.7399C68.0573 48.3331 67.9605 47.9308 67.7672 47.5728L47.8964 10.6651L28.0189 47.5794C27.8279 47.9365 27.7327 48.3371 27.7426 48.742C27.7524 49.1468 27.8671 49.5423 28.0753 49.8897L35.9639 63.0418L59.8288 63.0418L59.8255 63.0385Z" fill="#00C4F0"/>
<path fill-rule="evenodd" clip-rule="evenodd" d="M47.6943 11.0398L44.5786 42.1834C43.923 42.839 43.4766 43.6742 43.2957 44.5835C43.1149 45.4928 43.2077 46.4353 43.5625 47.2918C43.9173 48.1483 44.5181 48.8804 45.2889 49.3955C46.0598 49.9106 46.9661 50.1855 47.8932 50.1855C48.8203 50.1855 49.7265 49.9106 50.4974 49.3955C51.2682 48.8804 51.8691 48.1483 52.2238 47.2918C52.5786 46.4353 52.6715 45.4928 52.4906 44.5835C52.3097 43.6742 51.8633 42.839 51.2077 42.1834L48.092 11.0398L47.8932 10.6685L47.6943 11.0398Z" fill="#00C4F0"/>
</svg>
