<svg width="143" height="48" viewBox="0 0 143 48" fill="none" xmlns="http://www.w3.org/2000/svg">
<path d="M0.8125 7.39062V25.625C0.8125 27.1016 0.976562 28.5547 1.30469 29.9141C2.875 36.4297 8.05469 41.0234 15.3672 41.0234C22.6797 41.0234 27.8359 36.4297 29.4062 29.9141C29.7109 28.5547 29.8984 27.1016 29.8984 25.625V7.39062H22.8906V25.7422C22.8906 26.8203 22.75 27.875 22.4688 28.8828C21.6016 32.0234 19.2812 34.5312 15.3438 34.5312C11.4531 34.5312 9.13281 32.0234 8.24219 28.8828C7.96094 27.875 7.82031 26.8203 7.82031 25.7422V7.39062H0.8125ZM32.6641 41H41.3125L49.5625 28.9062L57.8125 41H66.4844L53.6172 23.2578L65.1016 7.41406H56.5L49.5625 17.5625L42.625 7.41406H34.0234L45.5078 23.2578L32.6641 41ZM89.1953 0.96875L67.7969 47.7266H75.1797L96.5781 0.96875H89.1953ZM100.328 7.39062V25.625C100.328 27.1016 100.492 28.5547 100.82 29.9141C102.391 36.4297 107.57 41.0234 114.883 41.0234C122.195 41.0234 127.352 36.4297 128.922 29.9141C129.227 28.5547 129.414 27.1016 129.414 25.625V7.39062H122.406V25.7422C122.406 26.8203 122.266 27.875 121.984 28.8828C121.117 32.0234 118.797 34.5312 114.859 34.5312C110.969 34.5312 108.648 32.0234 107.758 28.8828C107.477 27.875 107.336 26.8203 107.336 25.7422V7.39062H100.328ZM135.414 41H142.445V7.39062H135.414V41Z" fill="#00C4F0"/>
</svg>
